<?xml version="1.0" encoding="UTF-8" standalone="no"?>
<svg width="100%" height="100%" viewBox="0 0 1000 1000" xmlns="http://www.w3.org/2000/svg">

	
	<rect x="412.572021" y="367.198456" width="69.500000" height="63.299999" stroke="#784421" fill="#00aa88" stroke-width="1" opacity="0.6" />
	<rect x="393.850555" y="49.785263" width="69.500000" height="65.599998" stroke="#6600ff" fill="#c8ab37" stroke-width="1" opacity="0.6" />
	<rect x="198.288315" y="354.695770" width="69.500000" height="67.900002" stroke="#784421" fill="#00aa88" stroke-width="1" opacity="0.6" />
	<rect x="92.070419" y="425.837219" width="69.500000" height="70.199997" stroke="#6600ff" fill="#c8ab37" stroke-width="1" opacity="0.6" />
	<rect x="304.656433" y="167.835434" width="69.500000" height="70.199997" stroke="#784421" fill="#00aa88" stroke-width="1" opacity="0.6" />
	<rect x="270.000000" y="220.000000" width="69.500000" height="61.000000" stroke="#6600ff" fill="#c8ab37" stroke-width="1" opacity="0.6" />
	<rect x="230.000000" y="220.000000" width="69.500000" height="58.700001" stroke="#c8ab37" fill="#00aa88" stroke-width="1" opacity="0.6" />
	<rect x="270.000000" y="220.000000" width="69.500000" height="61.000000" stroke="#c8ab37" fill="#6600ff" stroke-width="1" opacity="0.6" />
	<rect x="230.000000" y="280.000000" width="69.500000" height="56.400002" stroke="#6600ff" fill="#c8ab37" stroke-width="1" opacity="0.6" />
	<rect x="280.000000" y="295.000000" width="69.500000" height="54.099998" stroke="#c8ab37" fill="#00aa88" stroke-width="1" opacity="0.6" />
	<rect x="230.000000" y="280.000000" width="69.500000" height="56.400002" stroke="#c8ab37" fill="#6600ff" stroke-width="1" opacity="0.6" />
	<rect x="280.000000" y="205.000000" width="66.000000" height="51.799999" stroke="#6600ff" fill="#c8ab37" stroke-width="1" opacity="0.6" />
	<rect x="220.000000" y="205.000000" width="62.500000" height="49.500000" stroke="#c8ab37" fill="#00aa88" stroke-width="1" opacity="0.6" />
	<rect x="280.000000" y="205.000000" width="66.000000" height="51.799999" stroke="#c8ab37" fill="#6600ff" stroke-width="1" opacity="0.6" />
	<rect x="220.000000" y="295.000000" width="59.000000" height="47.200001" stroke="#6600ff" fill="#c8ab37" stroke-width="1" opacity="0.6" />
	<rect x="290.000000" y="310.000000" width="55.500000" height="44.900002" stroke="#784421" fill="#00aa88" stroke-width="1" opacity="0.6" />
	<rect x="290.000000" y="190.000000" width="52.000000" height="42.599998" stroke="#6600ff" fill="#c8ab37" stroke-width="1" opacity="0.6" />
	<rect x="210.000000" y="190.000000" width="48.500000" height="40.299999" stroke="#784421" fill="#00aa88" stroke-width="1" opacity="0.6" />
	<rect x="210.000000" y="310.000000" width="45.000000" height="38.000000" stroke="#6600ff" fill="#c8ab37" stroke-width="1" opacity="0.6" />
	<rect x="300.000000" y="325.000000" width="41.500000" height="35.700001" stroke="#784421" fill="#00aa88" stroke-width="1" opacity="0.6" />
	<rect x="300.000000" y="175.000000" width="38.000000" height="33.400002" stroke="#6600ff" fill="#c8ab37" stroke-width="1" opacity="0.6" />
	<rect x="200.000000" y="175.000000" width="34.500000" height="31.100000" stroke="#784421" fill="#00aa88" stroke-width="1" opacity="0.6" />
	<rect x="200.000000" y="325.000000" width="31.000000" height="28.799999" stroke="#6600ff" fill="#c8ab37" stroke-width="1" opacity="0.6" />
	<rect x="310.000000" y="340.000000" width="27.500000" height="26.500000" stroke="#784421" fill="#00aa88" stroke-width="1" opacity="0.6" />
	<rect x="310.000000" y="160.000000" width="24.000000" height="24.200001" stroke="#6600ff" fill="#c8ab37" stroke-width="1" opacity="0.6" />
	<rect x="190.000000" y="160.000000" width="20.500000" height="21.900000" stroke="#784421" fill="#00aa88" stroke-width="1" opacity="0.6" />
	<rect x="190.000000" y="340.000000" width="17.000000" height="19.600000" stroke="#6600ff" fill="#c8ab37" stroke-width="1" opacity="0.6" />
	<rect x="320.000000" y="355.000000" width="13.500000" height="17.299999" stroke="#784421" fill="#00aa88" stroke-width="1" opacity="0.6" />
</svg>
