<?xml version="1.0" encoding="UTF-8" standalone="no"?>
<svg width="100%" height="100%" viewBox="0 0 1000 1000" xmlns="http://www.w3.org/2000/svg">
	<rect x="0.00" y="0.00" width="1000.00" height="1000.00" fill="none" stroke="red" stroke-dasharray="5,5" stroke-width="1" />

	
	<rect x="289.461945" y="146.016541" width="67.199997" height="53.400002" stroke="#c87137" fill="#ffcc00" stroke-width="1" opacity="0.6" />
	<rect x="471.609467" y="214.601334" width="64.400002" height="51.799999" stroke="#800000" fill="#c8ab37" stroke-width="1" opacity="0.6" />
	<rect x="171.848679" y="121.415382" width="61.599998" height="50.200001" stroke="#c87137" fill="#ffcc00" stroke-width="1" opacity="0.6" />
	<rect x="173.257355" y="269.375214" width="58.799999" height="48.599998" stroke="#800000" fill="#c8ab37" stroke-width="1" opacity="0.6" />
	<rect x="272.077637" y="184.081619" width="56.000000" height="47.000000" stroke="#c87137" fill="#ffcc00" stroke-width="1" opacity="0.6" />
	<rect x="470.255432" y="270.029266" width="53.200001" height="45.400002" stroke="#800000" fill="#c8ab37" stroke-width="1" opacity="0.6" />
	<rect x="50.070278" y="97.626457" width="50.400002" height="43.799999" stroke="#c87137" fill="#ffcc00" stroke-width="1" opacity="0.6" />
	<rect x="190.300964" y="83.452744" width="47.599998" height="42.200001" stroke="#800000" fill="#c8ab37" stroke-width="1" opacity="0.6" />
	<rect x="436.335449" y="447.808929" width="44.799999" height="40.599998" stroke="#c87137" fill="#ffcc00" stroke-width="1" opacity="0.6" />
	<rect x="70.239998" y="28.830906" width="42.000000" height="39.000000" stroke="#800000" fill="#c8ab37" stroke-width="1" opacity="0.6" />
	<rect x="408.297638" y="424.592560" width="39.200001" height="37.400002" stroke="#c87137" fill="#ffcc00" stroke-width="1" opacity="0.6" />
	<rect x="35.154045" y="30.864843" width="36.400002" height="35.799999" stroke="#800000" fill="#c8ab37" stroke-width="1" opacity="0.6" />
	<rect x="339.859711" y="418.107727" width="33.599998" height="34.200001" stroke="#c87137" fill="#ffcc00" stroke-width="1" opacity="0.6" />
	<rect x="97.420181" y="138.379639" width="30.799999" height="32.599998" stroke="#800000" fill="#c8ab37" stroke-width="1" opacity="0.6" />
	<rect x="240.162308" y="225.732071" width="28.000000" height="31.000000" stroke="#c87137" fill="#ffcc00" stroke-width="1" opacity="0.6" />
	<rect x="221.298248" y="153.941864" width="25.200001" height="29.400000" stroke="#800000" fill="#c8ab37" stroke-width="1" opacity="0.6" />
	<rect x="85.720299" y="320.707153" width="22.400000" height="27.799999" stroke="#c87137" fill="#ffcc00" stroke-width="1" opacity="0.6" />
	<rect x="312.812103" y="440.038116" width="19.600000" height="26.200001" stroke="#800000" fill="#c8ab37" stroke-width="1" opacity="0.6" />
	<rect x="486.674530" y="190.888824" width="16.799999" height="24.600000" stroke="#c87137" fill="#ffcc00" stroke-width="1" opacity="0.6" />
	<rect x="277.086792" y="101.767479" width="14.000000" height="23.000000" stroke="#800000" fill="#c8ab37" stroke-width="1" opacity="0.6" />
	<rect x="170.456528" y="72.969749" width="14.000000" height="21.400000" stroke="#c87137" fill="#ffcc00" stroke-width="1" opacity="0.6" />
	<rect x="505.103638" y="393.938934" width="14.000000" height="19.799999" stroke="#800000" fill="#c8ab37" stroke-width="1" opacity="0.6" />
	<rect x="70.439606" y="475.209442" width="14.000000" height="18.200001" stroke="#c87137" fill="#ffcc00" stroke-width="1" opacity="0.6" />
	<rect x="464.146332" y="17.519093" width="14.000000" height="16.600000" stroke="#800000" fill="#c8ab37" stroke-width="1" opacity="0.6" />
	<rect x="20.515394" y="416.914642" width="14.000000" height="15.000000" stroke="#c87137" fill="#ffcc00" stroke-width="1" opacity="0.6" />

	
</svg>
