<?xml version="1.0" encoding="UTF-8" standalone="no"?>
<svg width="100%" height="100%" viewBox="0 0 1000 1000" xmlns="http://www.w3.org/2000/svg">

	
	<rect x="30.313610" y="485.355072" width="13.500000" height="17.299999" stroke="#784421" fill="#00aa88" stroke-width="1" opacity="0.6" />
	<rect x="244.502274" y="352.510437" width="17.000000" height="19.600000" stroke="#6600ff" fill="#c8ab37" stroke-width="1" opacity="0.6" />
	<rect x="208.111130" y="364.721039" width="20.500000" height="21.900000" stroke="#784421" fill="#00aa88" stroke-width="1" opacity="0.6" />
	<rect x="280.226807" y="502.669250" width="24.000000" height="24.200001" stroke="#6600ff" fill="#c8ab37" stroke-width="1" opacity="0.6" />
	<rect x="445.427704" y="161.239746" width="27.500000" height="26.500000" stroke="#784421" fill="#00aa88" stroke-width="1" opacity="0.6" />
	<rect x="119.684776" y="216.874619" width="31.000000" height="28.799999" stroke="#6600ff" fill="#c8ab37" stroke-width="1" opacity="0.6" />
	<rect x="331.330780" y="184.813354" width="34.500000" height="31.100000" stroke="#784421" fill="#00aa88" stroke-width="1" opacity="0.6" />
	<rect x="394.455353" y="97.672958" width="38.000000" height="33.400002" stroke="#6600ff" fill="#c8ab37" stroke-width="1" opacity="0.6" />
	<rect x="71.205055" y="263.726349" width="41.500000" height="35.700001" stroke="#784421" fill="#00aa88" stroke-width="1" opacity="0.6" />
	<rect x="325.387665" y="145.745255" width="45.000000" height="38.000000" stroke="#6600ff" fill="#c8ab37" stroke-width="1" opacity="0.6" />
	<rect x="30.091255" y="416.485626" width="48.500000" height="40.299999" stroke="#784421" fill="#00aa88" stroke-width="1" opacity="0.6" />
	<rect x="266.954224" y="506.927246" width="52.000000" height="42.599998" stroke="#6600ff" fill="#c8ab37" stroke-width="1" opacity="0.6" />
	<rect x="390.496185" y="330.293304" width="55.500000" height="44.900002" stroke="#784421" fill="#00aa88" stroke-width="1" opacity="0.6" />
	<rect x="415.273804" y="446.868225" width="59.000000" height="47.200001" stroke="#6600ff" fill="#c8ab37" stroke-width="1" opacity="0.6" />
	<rect x="131.907593" y="217.633347" width="62.500000" height="49.500000" stroke="#784421" fill="#00aa88" stroke-width="1" opacity="0.6" />
	<rect x="455.123932" y="460.385895" width="66.000000" height="51.799999" stroke="#6600ff" fill="#c8ab37" stroke-width="1" opacity="0.6" />
	<rect x="410.368744" y="481.561035" width="69.500000" height="54.099998" stroke="#784421" fill="#00aa88" stroke-width="1" opacity="0.6" />
	<rect x="294.480011" y="75.814781" width="69.500000" height="56.400002" stroke="#6600ff" fill="#c8ab37" stroke-width="1" opacity="0.6" />
	<rect x="433.835480" y="156.802261" width="69.500000" height="58.700001" stroke="#784421" fill="#00aa88" stroke-width="1" opacity="0.6" />
	<rect x="498.141357" y="171.984085" width="69.500000" height="61.000000" stroke="#6600ff" fill="#c8ab37" stroke-width="1" opacity="0.6" />
	<rect x="412.572021" y="367.198456" width="69.500000" height="63.299999" stroke="#784421" fill="#00aa88" stroke-width="1" opacity="0.6" />
	<rect x="393.850555" y="49.785263" width="69.500000" height="65.599998" stroke="#6600ff" fill="#c8ab37" stroke-width="1" opacity="0.6" />
	<rect x="198.288315" y="354.695770" width="69.500000" height="67.900002" stroke="#784421" fill="#00aa88" stroke-width="1" opacity="0.6" />
	<rect x="92.070419" y="425.837219" width="69.500000" height="70.199997" stroke="#6600ff" fill="#c8ab37" stroke-width="1" opacity="0.6" />
	<rect x="304.656433" y="167.835434" width="69.500000" height="70.199997" stroke="#784421" fill="#00aa88" stroke-width="1" opacity="0.6" />
</svg>
