<?xml version="1.0" encoding="UTF-8" standalone="no"?>
<svg width="100%" height="100%" viewBox="0 0 1000 1000" xmlns="http://www.w3.org/2000/svg">
	<rect x="0.00" y="0.00" width="1000.00" height="1000.00" fill="none" stroke="red" stroke-dasharray="5,5" stroke-width="1" />

	
	<circle cx="49.674816" cy="287.784119" r="35.250000" stroke="#784421" fill="#00aa88" stroke-width="1" opacity="0.6" />
	<rect x="103.563637" y="228.581085" width="70.500000" height="60.099998" stroke="#784421" fill="#00aa88" stroke-width="1" opacity="0.6" />
	<circle cx="345.932648" cy="448.701019" r="37.000000" stroke="#6600ff" fill="#c8ab37" stroke-width="1" opacity="0.6" />
	<rect x="367.507446" y="426.375061" width="74.000000" height="62.799999" stroke="#6600ff" fill="#c8ab37" stroke-width="1" opacity="0.6" />
	<circle cx="320.869904" cy="379.541534" r="38.750000" stroke="#784421" fill="#00aa88" stroke-width="1" opacity="0.6" />
	<rect x="490.206573" y="446.309418" width="77.500000" height="65.500000" stroke="#784421" fill="#00aa88" stroke-width="1" opacity="0.6" />
	<rect x="11.000000" y="8.500000" width="67.000000" height="57.400002" stroke="#6600ff" fill="#c8ab37" stroke-width="1" opacity="0.6" />
	<circle cx="17.250000" cy="13.500000" r="33.500000" stroke="#c8ab37" fill="#c8ab37" stroke-width="1" opacity="0.6" />
	<rect x="11.000000" y="8.500000" width="67.000000" height="57.400002" stroke="#6600ff" fill="#c8ab37" stroke-width="1" opacity="0.6" />
	<rect x="23.500000" y="18.500000" width="63.500000" height="54.700001" stroke="#784421" fill="#00aa88" stroke-width="1" opacity="0.6" />
	<circle cx="29.750000" cy="23.500000" r="31.750000" stroke="#00aa88" fill="#00aa88" stroke-width="1" opacity="0.6" />
	<rect x="23.500000" y="18.500000" width="63.500000" height="54.700001" stroke="#784421" fill="#00aa88" stroke-width="1" opacity="0.6" />
	<rect x="36.000000" y="28.500000" width="60.000000" height="52.000000" stroke="#6600ff" fill="#c8ab37" stroke-width="1" opacity="0.6" />
	<circle cx="42.250000" cy="33.500000" r="30.000000" stroke="#c8ab37" fill="#c8ab37" stroke-width="1" opacity="0.6" />
	<rect x="36.000000" y="28.500000" width="60.000000" height="52.000000" stroke="#6600ff" fill="#c8ab37" stroke-width="1" opacity="0.6" />
	<rect x="48.500000" y="38.500000" width="56.500000" height="49.299999" stroke="#784421" fill="#00aa88" stroke-width="1" opacity="0.6" />
	<circle cx="54.750000" cy="43.500000" r="28.250000" stroke="#00aa88" fill="#00aa88" stroke-width="1" opacity="0.6" />
	<rect x="48.500000" y="38.500000" width="56.500000" height="49.299999" stroke="#784421" fill="#00aa88" stroke-width="1" opacity="0.6" />
	<rect x="61.000000" y="48.500000" width="53.000000" height="46.599998" stroke="#6600ff" fill="#c8ab37" stroke-width="1" opacity="0.6" />
	<circle cx="67.250000" cy="53.500000" r="26.500000" stroke="#c8ab37" fill="#c8ab37" stroke-width="1" opacity="0.6" />
	<rect x="61.000000" y="48.500000" width="53.000000" height="46.599998" stroke="#6600ff" fill="#c8ab37" stroke-width="1" opacity="0.6" />
	<rect x="73.500000" y="58.500000" width="49.500000" height="43.900002" stroke="#784421" fill="#00aa88" stroke-width="1" opacity="0.6" />
	<circle cx="79.750000" cy="63.500000" r="24.750000" stroke="#00aa88" fill="#00aa88" stroke-width="1" opacity="0.6" />
	<rect x="73.500000" y="58.500000" width="49.500000" height="43.900002" stroke="#784421" fill="#00aa88" stroke-width="1" opacity="0.6" />
	<rect x="86.000000" y="68.500000" width="46.000000" height="41.200001" stroke="#6600ff" fill="#c8ab37" stroke-width="1" opacity="0.6" />
	<circle cx="92.250000" cy="73.500000" r="23.000000" stroke="#c8ab37" fill="#c8ab37" stroke-width="1" opacity="0.6" />
	<rect x="86.000000" y="68.500000" width="46.000000" height="41.200001" stroke="#6600ff" fill="#c8ab37" stroke-width="1" opacity="0.6" />
	<rect x="98.500000" y="78.500000" width="42.500000" height="38.500000" stroke="#784421" fill="#00aa88" stroke-width="1" opacity="0.6" />
	<circle cx="104.750000" cy="83.500000" r="21.250000" stroke="#00aa88" fill="#00aa88" stroke-width="1" opacity="0.6" />
	<rect x="98.500000" y="78.500000" width="42.500000" height="38.500000" stroke="#784421" fill="#00aa88" stroke-width="1" opacity="0.6" />
	<rect x="111.000000" y="88.500000" width="39.000000" height="35.799999" stroke="#6600ff" fill="#c8ab37" stroke-width="1" opacity="0.6" />
	<circle cx="117.250000" cy="93.500000" r="19.500000" stroke="#c8ab37" fill="#c8ab37" stroke-width="1" opacity="0.6" />
	<rect x="111.000000" y="88.500000" width="39.000000" height="35.799999" stroke="#6600ff" fill="#c8ab37" stroke-width="1" opacity="0.6" />
	<rect x="123.500000" y="98.500000" width="35.500000" height="33.099998" stroke="#784421" fill="#00aa88" stroke-width="1" opacity="0.6" />
	<circle cx="129.750000" cy="103.500000" r="17.750000" stroke="#00aa88" fill="#00aa88" stroke-width="1" opacity="0.6" />
	<rect x="123.500000" y="98.500000" width="35.500000" height="33.099998" stroke="#784421" fill="#00aa88" stroke-width="1" opacity="0.6" />
	<rect x="136.000000" y="108.500000" width="32.000000" height="30.400000" stroke="#6600ff" fill="#c8ab37" stroke-width="1" opacity="0.6" />
	<circle cx="142.250000" cy="113.500000" r="16.000000" stroke="#c8ab37" fill="#c8ab37" stroke-width="1" opacity="0.6" />
	<rect x="136.000000" y="108.500000" width="32.000000" height="30.400000" stroke="#6600ff" fill="#c8ab37" stroke-width="1" opacity="0.6" />
	<rect x="148.500000" y="118.500000" width="28.500000" height="27.700001" stroke="#784421" fill="#00aa88" stroke-width="1" opacity="0.6" />
	<circle cx="154.750000" cy="123.500000" r="14.250000" stroke="#00aa88" fill="#00aa88" stroke-width="1" opacity="0.6" />
	<rect x="148.500000" y="118.500000" width="28.500000" height="27.700001" stroke="#784421" fill="#00aa88" stroke-width="1" opacity="0.6" />

	
</svg>
