<?xml version="1.0" encoding="UTF-8" standalone="no"?>
<svg width="100%" height="100%" viewBox="0 0 1000 1000" xmlns="http://www.w3.org/2000/svg">

	
	<circle cx="309.089661" cy="363.006622" r="14.250000" stroke="#784421" fill="#00aa88" stroke-width="1" opacity="0.6" />
	<rect x="20.727819" y="33.813702" width="28.500000" height="27.700001" stroke="#784421" fill="#00aa88" stroke-width="1" opacity="0.6" />
	<circle cx="141.592346" cy="155.184509" r="16.000000" stroke="#6600ff" fill="#c8ab37" stroke-width="1" opacity="0.6" />
	<rect x="77.404854" y="337.862488" width="32.000000" height="30.400000" stroke="#6600ff" fill="#c8ab37" stroke-width="1" opacity="0.6" />
	<circle cx="191.047226" cy="80.626434" r="17.750000" stroke="#784421" fill="#00aa88" stroke-width="1" opacity="0.6" />
	<rect x="414.833893" y="445.439941" width="35.500000" height="33.099998" stroke="#784421" fill="#00aa88" stroke-width="1" opacity="0.6" />
	<circle cx="459.364136" cy="223.292053" r="19.500000" stroke="#6600ff" fill="#c8ab37" stroke-width="1" opacity="0.6" />
	<rect x="399.870453" y="250.470062" width="39.000000" height="35.799999" stroke="#6600ff" fill="#c8ab37" stroke-width="1" opacity="0.6" />
	<circle cx="238.559601" cy="406.024902" r="21.250000" stroke="#784421" fill="#00aa88" stroke-width="1" opacity="0.6" />
	<rect x="153.150421" y="271.367310" width="42.500000" height="38.500000" stroke="#784421" fill="#00aa88" stroke-width="1" opacity="0.6" />
	<circle cx="174.204590" cy="492.195160" r="23.000000" stroke="#6600ff" fill="#c8ab37" stroke-width="1" opacity="0.6" />
	<rect x="333.047089" y="452.957703" width="46.000000" height="41.200001" stroke="#6600ff" fill="#c8ab37" stroke-width="1" opacity="0.6" />
	<circle cx="419.328857" cy="101.161949" r="24.750000" stroke="#784421" fill="#00aa88" stroke-width="1" opacity="0.6" />
	<rect x="268.643555" y="59.234333" width="49.500000" height="43.900002" stroke="#784421" fill="#00aa88" stroke-width="1" opacity="0.6" />
	<circle cx="116.347282" cy="242.977020" r="26.500000" stroke="#6600ff" fill="#c8ab37" stroke-width="1" opacity="0.6" />
	<rect x="500.358215" y="212.370987" width="53.000000" height="46.599998" stroke="#6600ff" fill="#c8ab37" stroke-width="1" opacity="0.6" />
	<circle cx="216.977188" cy="270.732697" r="28.250000" stroke="#784421" fill="#00aa88" stroke-width="1" opacity="0.6" />
	<rect x="442.096252" y="371.934479" width="56.500000" height="49.299999" stroke="#784421" fill="#00aa88" stroke-width="1" opacity="0.6" />
	<circle cx="97.038597" cy="223.186432" r="30.000000" stroke="#6600ff" fill="#c8ab37" stroke-width="1" opacity="0.6" />
	<rect x="169.752655" y="346.476288" width="60.000000" height="52.000000" stroke="#6600ff" fill="#c8ab37" stroke-width="1" opacity="0.6" />
	<circle cx="357.734863" cy="351.628876" r="31.750000" stroke="#784421" fill="#00aa88" stroke-width="1" opacity="0.6" />
	<rect x="354.122742" y="336.495636" width="63.500000" height="54.700001" stroke="#784421" fill="#00aa88" stroke-width="1" opacity="0.6" />
	<circle cx="297.443878" cy="420.626282" r="33.500000" stroke="#6600ff" fill="#c8ab37" stroke-width="1" opacity="0.6" />
	<rect x="402.355591" y="155.712021" width="67.000000" height="57.400002" stroke="#6600ff" fill="#c8ab37" stroke-width="1" opacity="0.6" />
	<circle cx="49.674816" cy="287.784119" r="35.250000" stroke="#784421" fill="#00aa88" stroke-width="1" opacity="0.6" />
	<rect x="103.563637" y="228.581085" width="70.500000" height="60.099998" stroke="#784421" fill="#00aa88" stroke-width="1" opacity="0.6" />
	<circle cx="345.932648" cy="448.701019" r="37.000000" stroke="#6600ff" fill="#c8ab37" stroke-width="1" opacity="0.6" />
	<rect x="367.507446" y="426.375061" width="74.000000" height="62.799999" stroke="#6600ff" fill="#c8ab37" stroke-width="1" opacity="0.6" />
	<circle cx="320.869904" cy="379.541534" r="38.750000" stroke="#784421" fill="#00aa88" stroke-width="1" opacity="0.6" />
	<rect x="490.206573" y="446.309418" width="77.500000" height="65.500000" stroke="#784421" fill="#00aa88" stroke-width="1" opacity="0.6" />
</svg>
