<?xml version="1.0" encoding="UTF-8" standalone="no"?>
<svg width="100%" height="100%" viewBox="0 0 1000 1000" xmlns="http://www.w3.org/2000/svg">

	
	<rect x="377.789612" y="636.410278" width="13.500000" height="17.299999" stroke="#784421" fill="#00aa88" stroke-width="1" opacity="0.6" />
	<rect x="308.275665" y="245.216660" width="17.000000" height="19.600000" stroke="#6600ff" fill="#c8ab37" stroke-width="1" opacity="0.6" />
	<rect x="143.723373" y="234.561569" width="20.500000" height="21.900000" stroke="#784421" fill="#00aa88" stroke-width="1" opacity="0.6" />
	<rect x="107.422340" y="523.539795" width="24.000000" height="24.200001" stroke="#6600ff" fill="#c8ab37" stroke-width="1" opacity="0.6" />
	<rect x="124.850044" y="400.840759" width="27.500000" height="26.500000" stroke="#784421" fill="#00aa88" stroke-width="1" opacity="0.6" />
	<rect x="223.481155" y="188.211395" width="31.000000" height="28.799999" stroke="#6600ff" fill="#c8ab37" stroke-width="1" opacity="0.6" />
	<rect x="666.151245" y="261.425964" width="34.500000" height="31.100000" stroke="#784421" fill="#00aa88" stroke-width="1" opacity="0.6" />
	<rect x="314.593018" y="437.092316" width="38.000000" height="33.400002" stroke="#6600ff" fill="#c8ab37" stroke-width="1" opacity="0.6" />
	<rect x="456.464172" y="172.064499" width="41.500000" height="35.700001" stroke="#784421" fill="#00aa88" stroke-width="1" opacity="0.6" />
	<rect x="148.185318" y="644.714539" width="45.000000" height="38.000000" stroke="#6600ff" fill="#c8ab37" stroke-width="1" opacity="0.6" />
	<rect x="301.016632" y="328.836853" width="48.500000" height="40.299999" stroke="#784421" fill="#00aa88" stroke-width="1" opacity="0.6" />
	<rect x="207.819244" y="517.402222" width="52.000000" height="42.599998" stroke="#6600ff" fill="#c8ab37" stroke-width="1" opacity="0.6" />
	<rect x="160.601074" y="396.538818" width="55.500000" height="44.900002" stroke="#784421" fill="#00aa88" stroke-width="1" opacity="0.6" />
	<rect x="123.959946" y="406.155304" width="59.000000" height="47.200001" stroke="#6600ff" fill="#c8ab37" stroke-width="1" opacity="0.6" />
	<rect x="417.175629" y="465.965820" width="62.500000" height="49.500000" stroke="#784421" fill="#00aa88" stroke-width="1" opacity="0.6" />
	<rect x="567.859619" y="681.481079" width="66.000000" height="51.799999" stroke="#6600ff" fill="#c8ab37" stroke-width="1" opacity="0.6" />
	<rect x="59.187599" y="347.465179" width="69.500000" height="54.099998" stroke="#784421" fill="#00aa88" stroke-width="1" opacity="0.6" />
	<rect x="480.670380" y="167.172714" width="73.000000" height="56.400002" stroke="#6600ff" fill="#c8ab37" stroke-width="1" opacity="0.6" />
	<rect x="671.958313" y="89.372391" width="76.500000" height="58.700001" stroke="#784421" fill="#00aa88" stroke-width="1" opacity="0.6" />
	<rect x="583.951294" y="164.299393" width="80.000000" height="61.000000" stroke="#6600ff" fill="#c8ab37" stroke-width="1" opacity="0.6" />
</svg>
